@startuml "diagramme de classe"

' top to bottom direction
skinparam linetype ortho
' skinparam linetype polyline


class Main

package view {

    class MainWindow {
        - history : Stack<String>
        - currentPage : String
        - cardLayout : CardLayout
        - container : JPanel

        + addPage(panel: JPanel, name: String) : void
        + setPage(name: String) : void
        + goBack() : void
        + openDocumentForm(Document) : void
        + openClientSupplierForm(ClientSupplier) : void
        + openProductView(Product) : void
        + openRecipeView(Recipe) : void
    }

    class MenuWindow{
        - appMenu : JMenu
        - searchMenu : JMenu
        - receipeMenu : JMenu
        - closeItem : JMenuItem
        - helpItem : JMenuItem
        - clientItem : JMenuItem
        - suplierItem : JMenuItem
        - documentItem : JMenuItem
        - productItem : JMenuItem
        - recipeItem : JMenuItem
    }

    class MainPanel

    'CRUD 1'
    'Read Delete'
    class DocumentTable {
        -documents : ArrayList<Document> // All docs
        -displayDocuments : ArrayList<Document> // Displayed docs in the table
        - searchPanel : JPanel
        - tablePanel : JPanel
        - idDocument : JTextField
        - comboTypeDocumentFilter : JComboBox<ComboBoxItem<DocumentType>>
        - startCreationDate : JSpinner
        - endCreationDate : JSpinner
        - useStartDate : JCheckBox
        - useEndDate : JCheckBox
        - table : JTable

        + onFilterClick() : void
        + onCreateClick() : void
        + onUpdateClick() : void
        + onDeleteClick() : void
        + setDocumentTypes(types: ArrayList<DocumentType>) : void
        - buildHeader() : JPanel
        - buildSearchPanel() : void
        - buildTablePanel() : void

    }

    'Create Update'
    class DocumentForm {
        - allClients : ArrayList<ClientSupplier>
        - allDocumentTypes : ArrayList<DocumentType>
        - allWorkflowStatuses : ArrayList<Status>
        - appPanel : JPanel
        - panelContent : JPanel
        - leftPanel : JPanel
        - rightPanel : JPanel
        - commentary : JTextArea
        - checkIsChecked : JCheckBox
        - pickerPlannedSendDate : JSpinner
        - pickerPlannedReceptionDate : JSpinner
        - pickerEffectiveSendDate : JSpinner
        - pickerEffectiveReceptionDate : JSpinner
        - spnPaymentDelay : JSpinner
        - chkPlannedSendDate : JCheckBox
        - chkPlannedReceptionDate : JCheckBox
        - chkEffectiveSendDate : JCheckBox
        - chkEffectiveReceptionDate : JCheckBox
        - comboDocumentType : JComboBox<ComboBoxItem<DocumentType>>
        - comboClientSupplier : JComboBox<ComboBoxItem<ClientSupplier>>
        - comboWorkflowStatus : JComboBox<ComboBoxItem<Status>>
        - isBuy : JRadioButton
        - isSell : JRadioButton
        - isInternal : JRadioButton
        - spnStreetNumber : JSpinner
        - spnPostalCode : JSpinner
        - txtStreet : JTextField
        - txtCity : JTextField
        - txtCountry : JTextField
        - btnSave : JButton
        - btnClear : JButton
        - btnNewClient : JButton

        - buildHeaderPanel() : void
        - buildLeftPanel() : void
        - buildRightPanel() : void
        - validateForm() : boolean
        - saveEditForm() : void
        + clearForm() : void
        + loadDocument(doc: Document) : void
        + setClientSuppliers(clientSupplier: ArrayList<ClientSupplier>) : void
        + setDocumentTypes(types: ArrayList<DocumentType>) : void
        + setWorkflowStatus(statuses: ArrayList<Status>) : void
        + onNewClientcliked() : void
        + openDialog() : ClientSupplier
    }

    class DocumentTableModel {
        - documents : ArrayList<Document>
        {static} - COLUMNS : String[]

        + setDocuments(documents: ArrayList<Document>) : void
        + getRowCount() : int
        + getColumnCount() : int
        + getColumnName(column: int) : String
        + getValueAt(rowIndex: int, columnIndex: int) : Object
        + isCellEditable(rowIndex: int, columnIndex: int) : boolean
    }

    'CRUD 2 '
    'Read Delete'
    class ClientSupplierTable {
        - clientSuppliers : ArrayList<ClientSupplier>
        - displayClientSupplier : ArrayList<ClientSupplier>
        - searchPanel : JPanel
        - tablePanel : JPanel
        - txtLoyalityCard : JTextField
        - txtLastName : JTextField
        - txtFirstName : JTextField
        - chkIsClient : JCheckBox
        - chkIsSupplier : JCheckBox
        - chkIsMember : JCheckBox
        - table : JTable

        + buildHeader() : JPanel
        + buildSearchPanel() : void
        + buildTablePanel() : void
        + onFilterClick() : void
        + onCreateClick() : void
        + onModifyClick() : void
        + onDeleteClick() : void
    }

    'Create Update'
    class ClientSupplierForm {
        - isOpenInModal : Boolean
        - appPanel : JPanel
        - panelContent : JPanel
        - leftPanel : JPanel
        - rightPanel : JPanel
        - txtName : JTextField
        - txtFirstName : JTextField
        - txtMail : JTextField
        - txtPhoneNumber : JTextField
        - txtVATNumber : JTextField
        - becameClientDate : JSpinner
        - txtIdLoyaltyCard : JTextField
        - spnLoyaltyPoint : JSpinner
        - chkIsClient : JCheckBox
        - chkIsSupplier : JCheckBox
        - chkIsMember : JCheckBox
        - spnStreetNumber : JSpinner
        - spnPostalCode : JSpinner
        - txtStreet : JTextField
        - txtCity : JTextField
        - txtCountry : JTextField
        - btnSave : JButton
        - btnClear : JButton
        - btnNewClient : JButton

        - buildLeftPanel() : void
        - buildRightPanel() : void
        - validateForm() : Boolean
        - saveEditForm() : void
        + clearForm() : void
        + loadClientSupplier(cs : ClientSupplier) : void
        + getCurrentClientSupplier() : ClientSupplier
    }

    class ClientSupplierTableModel {
        {static} - COLUMNS : String[]
        - clientSuppliers : ArrayList<ClientSupplier>

        + setClientSuppliers(clientSuppliers : ArrayList<ClientSupplier>) : void
        + getRowCount() : int
        + getColumnCount() : int
        + getColumnName(column : int) : String
        + getValueAt(rowIndex : int, columnIndex : int) : Object
        + isCellEditable(rowIndex : int, columnIndex : int) : boolean
    }

    'Recherche 1 '
    class ProductSearchTable {
        -txtProductName : JTextField
        -comboCategory : JComboBox
        -boxpromotion : JCheckBox
        -btnSearch : JButton
        -table : JTable

        +onSearchClicked() : void
        +onViewClicked() : void
        +clearForm() : void
        +displayResults(List<Product>) : void
    }

    class ProductView {
        - LABEL_NO_DATA : String = "N/A"

        + loadProduct(product : Product) : void
        - buildContent() : JPanel
        - buildTitle() : JPanel
        - buildProductInfo() : JPanel
        - buildStockInfo() : JPanel
        - buildPromotion() : JPanel
        - buildFooter() : JPanel
        - createCard(title : String) : JPanel
        - labelValue(label : String, value : String) : JPanel
        - formatPrice(price : double) : String
    }

    class ProductTableModel {
        - products : List<Product>
        {static} - COLUMNS : String[]

        + setProducts(products : List<Product>) : void
        + getProductAt(row : int) : Product
        + getRowCount() : int
        + getColumnCount() : int
        + getColumnName(column : int) : String
        + getValueAt(rowIndex : int, columnIndex : int) : Object
        + isCellEditable(rowIndex : int, columnIndex : int) : boolean
    }

    'Recherche 2 '
    class RecipeSearchTable {
        -txtName : JTextField
        -txtProduct : JTextField
        -btnSearch : JButton
        -btnAddProduct : JButton
        -btnViewProduct : JButton
        -table : JTable

        +onAddProductClicked() : void
        +onSearchClicked() : void
        +clearForm() : void
        +displayResults(List<Recipe>) : void
    }

    class RecipeView {
        -tableComposition : JTable
        -txtSteps : JTextArea
        -btnEdit : JButton
        -btnBack : JButton

        +onBackClicked() : void
        +onModifyClicked() : void
        +displayRecipe(Recipe) : void
    }

    class ReciepeTableModel {
        - recipes : List<Recipe>
        {static} - COLUMNS : String[]

        + ReciepeTableModel(recipes : List<Recipe>)
        + setRecipes(recipes : List<Recipe>) : void
        + getRecipeAt(row : int) : Recipe
        + getRowCount() : int
        + getColumnCount() : int
        + getColumnName(column : int) : String
        + getValueAt(rowIndex : int, columnIndex : int) : Object
        + isCellEditable(rowIndex : int, columnIndex : int) : boolean
    }

    'Recherche 3 '
    class ClientSupplierSearchForm {
        -txtName : JTextField
        -txtEmail : JTextField
        -boxFidelityValid : JCheckBox
        -table : JTable

        +onLoadClicked() : void
        +onSearchClicked() : void
        +clearForm() : void
        +displayResults(List<ClientSupplier>) : void
    }

    'Tâche métier 1'
    class StockAlertView {
        -suppliers : ArrayList<ClientSupplier>
        -selectedSupplier :ClientSupplier
        -products : ArrayList<ProductRow>
        -selectedProducts : ArrayList<ProductRowViewModel>
        -productTable : JTable

        +onSupplierSelected(supplier :ClientSupplier) : void
        +onCreatePurchaseOrderClicked() : void
    }
    class OrderCreationView {
        -selectedSupplier :ClientSupplier
        -productsTable : JTable
        -createButton : JButton
        -cancelButton : JButton

        +displayProducts(products : ArrayList<Product>) : void
        +onQuantityChanged(productId : int, quantity : int) : void

        +onCreateOrderClicked() : void
        +onCancelClicked() : void
    }

    'Tâche métier 2'
    class TicketForm {
        - txtSearchProduct : JTextField
        - btnScan : JButton
        - productTable : JTable
        - ticketTable : JTable
        - btnAddItem : JButton
        - btnRemoveItem : JButton
        - btnNext : JButton

        + displayProducts(products : ArrayList<Product>) : void
        + displayCart(items : ArrayList<TicketItem>) : void
        + updateTotal(total : double) : void

        + onAddItem(product : Product) : void
        + onRemoveItem(item : TicketItem) : void
        + onNextClicked() : void
    }
    class TicketClientSelectView {
        - clients : ArrayList<ClientSupplier>
        - selectedClient : ClientSupplier
        - comboSearchClient : JComboBox
        - btnNewClient : JButton
        - btnScanCard : JButton
        - btnBack : JButton
        - btnNext : JButton

        + displaySelectedClient(ClientSupplier)

        + onNewClientClicked()
        + onScanCardClicked()
        + onBackClicked()
        + onNextClicked()
    }
    class TicketPaymentView {
        - client : ClientSupplier
        - btnUsePoints : JButton
        - comboPaymentMethod : JComboBox

        - btnBack : JButton
        - btnPay : JButton

        + displayClient(ClientSupplier) : void
        + displayLoyalty(int available, int used)
        + displaySummary(double subtotal, double discount, double total) : void
        + showPaymentStatus() : void

        + onUsePointsClicked() : void
        + onPaymentMethodChanged() : void
        + onBackClicked() : void
        + onPayClicked() : void
    }

    class ViewUtils {
        {static} +createColumnPanel() : JPanel
        {static} +labeled(text : String, comp : JComponent) : JPanel
        {static} +labeled(checkBox : JCheckBox, comp : JComponent) : JPanel
        {static} +labeledRequired(labelText : String, comp : JComponent) : JPanel
        {static} +createDateSpinner() : JSpinner
        {static} +labeledToggleDate(label : String, spinner : JSpinner, chk : JCheckBox) : JPanel
        {static} +createNumberSpinner(value : int, min : int, max : int, step : int) : JSpinner
        {static} +getDate(spinner : JSpinner) : LocalDate
        {static} +toDate(localDate : LocalDate) : Date
        {static} +toLocalDate(date : Date) : LocalDate
        {static} +addFilterListener(textField : JTextField, onFilter : Runnable) : JTextField
        {static} +addFilterListener(checkBox : JCheckBox, onFilter : Runnable) : JCheckBox
        {static} +addFilterListener(combo : JComboBox<T>, onFilter : Runnable) : JComboBox<T>
        {static} +digitsOnly(textField : JTextField) : JTextField
    }

    class ComboBoxItem<T> {
        - object: T
        - label: String

        + ComboBoxItem(object: T, label: String)
        + getObject(): T
        + toString(): String
        + selectComboItem(combo: JComboBox<ComboBoxItem<T>>, object: T): void
    }

    Main --> MainWindow
    MainWindow -up-> MenuWindow
    MainWindow -up-> MainPanel
    MainWindow --> ClientSupplierTable
    MainWindow --> DocumentTable
    MainWindow --> RecipeSearchTable
    MainWindow --> ProductSearchTable
    MainWindow --> ClientSupplierSearchForm
    MainWindow --> StockAlertView
    MainWindow --> TicketForm

    DocumentTable --> DocumentForm
    DocumentTable --> DocumentTableModel
    DocumentTable ..> ViewUtils
    DocumentForm ..> ViewUtils
    DocumentForm ..> ComboBoxItem

    ClientSupplierTable --> ClientSupplierForm
    ClientSupplierTable --> ClientSupplierTableModel
    ClientSupplierForm ..> ViewUtils
    ClientSupplierTable ..> ViewUtils

    ProductSearchTable --> ProductView
    ProductSearchTable --> ProductTableModel
    ProductSearchTable ..> ViewUtils

    StockAlertView --> OrderCreationView

    RecipeSearchTable --> RecipeView
    RecipeSearchTable --> ReciepeTableModel
    RecipeSearchTable ..> ViewUtils

    TicketForm --> TicketClientSelectView
    TicketClientSelectView --> TicketPaymentView
}

package controller {

    class DocumentController {
        +getAllDocuments() : List<Document>
        +getDocument(id: int): Document
        +getDocumentTypes(): List<DocumentType>
        +addDocumentType(docType: DocumentType): void
        +createDocument(newDocument: Document) : void
        +receiveDelivery(documentId: int, date: LocalDate): void
        +sendDelivery(documentId: int, date: LocalDate): void
        +deleteDocument(id : int) : void
    }

    class PreparationOrderController {
        +getAllRecipe(): List<Recipe>
        +getRecipe(recipeName: String): Recipe
        +getIngredient(recipeName: String): List<Pair<Product, Integer>>
        +createNewRecipe(newRecipe: Recipe, ingredients: List<Pair<Product, Integer>>): void
    }

    class WorkFlowController {
        +getAllWorkFlow(): List<WorkFlow>
        +getAllBuying(): List<WorkFlow>
        +getAllInternal(): List<WorkFlow>
        +getAllSelling(): List<WorkFlow>
        +getWorkFlowType(): List<WorkFlowType>
        +addWorkFlowType(newWorkFlowType: WorkFlowType): void
        +addWorkFlow(workflow: WorkFlow): void
        +changeStatus(workflowId: int, status: Status): void
        +addDocument(workflowId: int, document: Document): void
    }

    abstract class ClientSupplierController {
        +getAllClientsSuppliers() : List<ClientSupplier>
        +getClientSupplier(id: int): ClientSupplier
        +createClientSupplier(newClient: ClientSupplier) : void
        +changeAddress(id : int, newAddress: Address) : void
        +changePhoneNumber(id: int, newPhoneNumber: int): void
        +changeEmail(id: int, newEmail: String) : void
        +deleteClientSupplier(id : int) : void
        {abstract} + placeOrder(clientSupplierID: int, products: List<Product>): void
    }

    class ClientController {
        +getAllClients(): List<ClientSupplier>
        +createFidelityCard(clientID: int): void
        +validateFidelityCardOwnership(clientID: int, cardID: int): boolean
        +addCheckout(products: List<Product>): void
        +addCheckout(products: List<Product>, clientID: int): void
        +addCheckout(products: List<Product>, clientID: int, fidelityCard: FidelityCard, useFidelityPoint: boolean): void
        +addCheckout(products: List<Product>, clientID: int, fidelityCard: FidelityCard): void
        +deleteClientAccount(clientID: int)
        +deleteClientAccount(clientID: int, cardID: int): void
        +getDeliveryOrders(): List<Document>
    }

    class SupplierController {
        +getAllSuppliers(): List<ClientSupplier>
        +getAllProduct(supplierID: int): List<Product>
        +changeVATNumber(supplierID: int, newVATNumber): void
    }

    class ProductController {
        +getAllProduct(): List<Product>
        +getProduct(productID: int): Product
        +getAllProductCategory(): List<Category>
        +createNewProduct(newProduct: Product): void
        +changeProductPrice(productID: int, newPrice: double): void
        +changeProductVAT(productID, newVAT: double): void
        +changeFidelityPoint(productID, newPoints: int): void
        +changeMinimalQuantity(productID: int, newQuantity: int): void
        +deleteProductOffer(productID: int): void
        +createNewProductCategory(name: String): void

        +addStockLocation(newLocation: Location): void
        +addToStocks(productID: int, quantity: int, storeLocation: Location): void
        +subtractFromStock(productID: int, quantity: int, storeLocation: Location): void
        +deleteStockLocation(location: Location): void
        +addDiscount(newDiscount: Discount): void
        +deleteDiscount(discount: Discount): void
    }

    class EmployeeController {
        +getAllEmployee(): List<Employee>
        +getEmployee(employeeID: int): Employee
        +changeAddress(employeeID: int, newAddress: Address): void
        +changePassword(employeeID: int, newPassword: String): void
        +changeManager(employeeID: int, newManager: Employee): void
        +changeBankAccount(employeeID: int, newIBAN: String): void
        +changeHoursSalary(employeeID: int, newSalary: double): void
        +changeHalfDayBreak(employeeID: int, newNbHalfDay: int): void

        +assignPosition(employeeID: int, position: Position): void
        +addPosition(position: Position): void
        +revokePosition(employeeID: int, position: Position): void
        +checkIn(employeeID: int): void
        +checkOut(employeeID: int): void
        +addNonAttendance(employeeID: int, type: NonAttendanceType, description: String): void
        +addNonAttendance(employeeID: int, type: NonAttendanceType, description: String, startDate: LocalDate): void
        +addNonAttendance(employeeID: int, type: NonAttendanceType, description: String, startDate: LocalDate, endDate: LocalDate): void
        +changeNonAttendance(employeeID: int, startDate: LocalDate, endDate: LocalDate): void
    }

    class AddresseController {
        +getAllAddresse(): List<Addresse>
        +createAddresse(addresse: Addresse): void
        +createLocality(locality: Locality): void
        +deleteAddresse(addresse: Addresse): void
    }

    class ProductSearchController {
        +searchProducts(name : String, category : String, promotion : boolean) : List<Product>
    }

    class RecipeSearchController {
        +searchRecipes(name : String, product : String) : List<Recipe>
    }

    class ClientSupplierSearchController {
        +search(name : String, email : String, fidelityValid : boolean) : List<ClientSupplier>
    }

    ' TODO: Which attributes should be included ? Which methods should be  created ?'
    class StockManagementController {
        {static} notification: List<Pair<Product, Supplier>>
        {static} thread: Thread
        {static} startAgent(): boolean
        {static} stopAgent(): void
        {static} askStockCheckUp(): void
        {static} getSharedResource(): 
    }

    DocumentController <|-- PreparationOrderController
    ClientSupplierController <|.. ClientController: implement
    ClientSupplierController <|.. SupplierController: implement
}

' VIEW → CONTROLLER
' DocumentForm --> DocumentController
' DocumentTable --> DocumentController
' ClientSupplierTable --> ClientSupplierController
' ClientSupplierForm --> ClientSupplierController
' ProductSearchTable --> ProductSearchController
' RecipeSearchTable --> RecipeSearchController
' ClientSupplierSearchForm --> ClientSupplierSearchController
' Main ..> StockManagementController: << Thread >>
view ..> controller

package business {

    class DocumentManager {
        +getAllDocuments() : List<Document>
        +getDocument(id: int): Document
        +getDocumentTypes(): List<DocumentType>
        +addDocumentType(docType: DocumentType): void
        +createDocument(newDocument: Document) : void
        +receiveDelivery(documentId: int, date: LocalDate): void
        +sendDelivery(documentId: int, date: LocalDate): void
        +deleteDocument(id : int) : void
    }

    class PreparationOrderManager {
        +getAllRecipe(): List<Recipe>
        +getRecipe(recipeName: String): Recipe
        +getIngredient(recipeName: String): List<Pair<Product, Integer>>
        +createNewRecipe(newRecipe: Recipe, ingredients: List<Pair<Product, Integer>>): void
    }

    class WorkFlowManager {
        +getAllWorkFlow(): List<WorkFlow>
        +getAllBuying(): List<WorkFlow>
        +getAllInternal(): List<WorkFlow>
        +getAllSelling(): List<WorkFlow>
        +getWorkFlowType(): List<WorkFlowType>
        +addWorkFlowType(newWorkFlowType: WorkFlowType): void
        +addWorkFlow(workflow: WorkFlow): void
        +changeStatus(workflowId: int, status: Status): void
        +addDocument(workflowId: int, document: Document): void
    }

    abstract class ClientSupplierManager {
        +getAllClientsSuppliers() : List<ClientSupplier>
        +getClientSupplier(id: int): ClientSupplier
        +createClientSupplier(newClient: ClientSupplier) : void
        +changeAddress(id : int, newAddress: Address) : void
        +changePhoneNumber(id: int, newPhoneNumber: int): void
        +changeEmail(id: int, newEmail: String) : void
        +deleteClientSupplier(id : int) : void
        {abstract} + placeOrder(clientSupplierID: int, products: List<Product>): void
    }

    class ClientManager {
        +getAllClients(): List<ClientSupplier>
        +createFidelityCard(clientID: int): void
        +validateFidelityCardOwnership(clientID: int, cardID: int): boolean
        +addCheckout(products: List<Product>): void
        +addCheckout(products: List<Product>, clientID: int): void
        +addCheckout(products: List<Product>, clientID: int, fidelityCard: FidelityCard, useFidelityPoint: boolean): void
        +addCheckout(products: List<Product>, clientID: int, fidelityCard: FidelityCard): void
        +deleteClientAccount(clientID: int)
        +deleteClientAccount(clientID: int, cardID: int): void
        +getDeliveryOrders(): List<Document>
    }

    class SupplierManager {
        +getAllSuppliers(): List<ClientSupplier>
        +getAllProduct(supplierID: int): List<Product>
        +changeVATNumber(supplierID: int, newVATNumber): void
    }

    class ProductManager {
        +getAllProduct(): List<Product>
        +getProduct(productID: int): Product
        +getAllProductCategory(): List<Category>
        +createNewProduct(newProduct: Product): void
        +changeProductPrice(productID: int, newPrice: double): void
        +changeProductVAT(productID, newVAT: double): void
        +changeFidelityPoint(productID, newPoints: int): void
        +changeMinimalQuantity(productID: int, newQuantity: int): void
        +deleteProductOffer(productID: int): void
        +createNewProductCategory(name: String): void

        +addDiscount(newDiscount: Discount): void
        +deleteDiscount(discount: Discount): void
    }

    class EmployeeManager {
        +getAllEmployee(): List<Employee>
        +getEmployee(employeeID: int): Employee
        +changeAddress(employeeID: int, newAddress: Address): void
        +changePassword(employeeID: int, newPassword: String): void
        +changeManager(employeeID: int, newManager: Employee): void
        +changeBankAccount(employeeID: int, newIBAN: String): void
        +changeHoursSalary(employeeID: int, newSalary: double): void
        +changeHalfDayBreak(employeeID: int, newNbHalfDay: int): void

        +assignPosition(employeeID: int, position: Position): void
        +addPosition(position: Position): void
        +revokePosition(employeeID: int, position: Position): void
        +checkIn(employeeID: int): void
        +checkOut(employeeID: int): void
        +addNonAttendance(employeeID: int, type: NonAttendanceType, description: String): void
        +addNonAttendance(employeeID: int, type: NonAttendanceType, description: String, startDate: LocalDate): void
        +addNonAttendance(employeeID: int, type: NonAttendanceType, description: String, startDate: LocalDate, endDate: LocalDate): void
        +changeNonAttendance(employeeID: int, startDate: LocalDate, endDate: LocalDate): void
    }

    class AddresseManager {
        +getAllAddresse(): List<Addresse>
        +createAddresse(addresse: Addresse): void
        +createLocality(locality: Locality): void
        +deleteAddresse(addresse: Addresse): void
    }

    class ProductSearchManager {
        +searchProducts(name : String, category : String, promotion : boolean) : List<Product>
    }

    class RecipeSearchManager {
        +searchRecipes(name : String, product : String) : List<Recipe>
    }

    class ClientSupplierSearchManager {
        +search(name : String, email : String, fidelityValid : boolean) : List<ClientSupplier>
    }

    class StockManager {
        +addStockLocation(newLocation: Location): void
        +addToStocks(productID: int, quantity: int, storeLocation: Location): void
        +subtractFromStock(productID: int, quantity: int, storeLocation: Location): void
        +deleteStockLocation(location: Location): void
        +getAllShortSuppliedProduct(): List<Product>
    }

    DocumentManager <|-- PreparationOrderManager

    ClientSupplierManager <|.. ClientManager: implement
    ClientSupplierManager <|.. SupplierManager: implement

    ClientSupplierManager ..> DocumentManager: use
    ClientSupplierManager ..> WorkFlowManager: use

    EmployeeManager ..> AddresseManager: use
    ClientSupplierManager ..> AddresseManager: use
    DocumentManager ..> AddresseManager: use

    DocumentManager ..> StockManager: use
    DocumentManager ..> ProductManager: use

    PreparationOrderManager ..> ProductManager: use
    PreparationOrderManager ..> StockManager: use

    WorkFlowManager ..> DocumentManager: use
}

' CONTROLLER → BUSINESS
' DocumentController --> DocumentManager
' ClientSupplierController --> ClientSupplierManager
' ProductSearchController --> ProductManager
' RecipeSearchController --> RecipeSearchManager
' ClientSupplierSearchController --> ClientSupplierManager
' StockManagementController --> ProductManager
controller ..> business

package data {

    class SingletonConnection {
        {static} -instance : Connection
        -url : String
        -username : String
        -password : String
        +getInstance() : Connection
        +resetConnection(): void
        +closeConnection(): void
    }

    abstract class CRUD<T> {
        # tableName: String
        # tableAttributeToModel: HashMap<String, class>
        - modelMappingDate: HashMap<class, class> 

        {abstract} +getAll(): List<T>
        {abstract} +get(id: String): T
        {abstract} +insert(new: T): void
        {abstract} +update(old: T, new: T): void
        {abstract} +delete(old: T): void
        #getDBAccessClass(class): class
    }

    class ClientSupplierDBAccess {
    }

    class EmployeeDBAccess {
    }

    class DocumentDBAccess {
    }

    class ProductDBAccess {
    }

    class RecipeDBAccess {
    }

    class AddressDBAccess {
    }

    class StockDBAccess {
    }

    class PreparationOrderDBAccess {
    }

    class WorkFlowDBAccess {
    }

    SingletonConnection <.. ClientSupplierDBAccess: use 
    SingletonConnection <.. EmployeeDBAccess: use 
    SingletonConnection <.. DocumentDBAccess: use 
    SingletonConnection <.. ProductDBAccess: use 
    SingletonConnection <.. RecipeDBAccess: use 
    SingletonConnection <.. AddressDBAccess: use 
    SingletonConnection <.. StockDBAccess: use 
    SingletonConnection <.. PreparationOrderDBAccess: use 
    SingletonConnection <.. WorkFlowDBAccess: use 
    SingletonConnection <.. ProductSearchManager: use 
    SingletonConnection <.. RecipeSearchManager: use 
    SingletonConnection <.. ClientSupplierSearchManager: use

    ClientSupplierDBAccess ..|> CRUD: implement
    EmployeeDBAccess ..|> CRUD: implement
    DocumentDBAccess ..|> CRUD: implement
    ProductDBAccess ..|> CRUD: implement
    RecipeDBAccess ..|> CRUD: implement
    AddressDBAccess ..|> CRUD: implement
    StockDBAccess ..|> CRUD: implement
    PreparationOrderDBAccess ..|> CRUD: implement
    WorkFlowDBAccess ..|> CRUD: implement
}

' BUSINESS → DATA
' DocumentManager --> DocumentDBAccess
' ClientSupplierManager --> ClientSupplierDBAccess
' ProductManager --> ProductDBAccess
' RecipeSearchManager --> RecipeDBAccess
business ..> data

package exception {
    exception InvalidUserException

    exception InvalidClientSupplierException
    exception InvalidDocumentException
    exception InvalidProductException
    exception InvalidRecipeException
    exception NotFoundException

    exception DataValidationException
    exception DatabaseConnectionException
}

' EXCEPTIONS
' DocumentController ..> InvalidDocumentException
' ClientSupplierController ..> InvalidClientSupplierException
' ProductSearchController ..> InvalidProductException
' RecipeSearchController ..> InvalidRecipeException

' DocumentManager ..> DataValidationException
' ClientSupplierManager ..> DataValidationException
' ProductManager ..> DataValidationException
' RecipeSearchManager ..> DataValidationException

' DocumentDBAccess ..> DatabaseConnectionException
' ClientSupplierDBAccess ..> DatabaseConnectionException
' ProductDBAccess ..> DatabaseConnectionException
' RecipeDBAccess ..> DatabaseConnectionException

view ..> exception
controller ..> exception
business ..> exception
data ..> exception

package model {
    class Locality {
        -postalCode : int
        -city : String
    }

    class Address {
        -streetName : String
        -streetNumber : int
    }

    Address --> Locality

    class Employee {
        -matricule : String
        -lastname : String
        -firstname : String
        -phoneNumber : String
        -email : String
        -IBAN : String
        -salaryPerHour : float
        -nbHourPerWeek : int
        -entryDate : Date
        -nbPaidHoliday : int
        -password : String
    }

    Employee --> Address
    Employee "0..*" --> "0..1" Employee : manager

    class Pointing {
        -date : Date
        -startTime : Time
        -endTime : Time
    }

    Pointing "*" --> "1" Employee

    class Role_ {
        -name : String
    }

    class Position {
    }

    Position "*" --> "*" Employee
    Position "*" --> "1" Role_

    class AbsenceType {
        -name : String
    }

    class Absence {
        -startDate : Date
        -endDate : Date
        -description : String
    }

    Absence "*" --> "1" AbsenceType
    Absence "*" --> "1" Employee

    class ClientSupplier {
        -id : int
        -name : String
        -firstName : String
        -email : String
        -phoneNumber : String
        -isClient : bool
        -isSupplier : bool
        -VATNumber : String
        -dateBecameClient : Date
    }

    ClientSupplier "*" --> "1" Address

    class FidelityCard {
        -id : int
        -totalPoint : int
        -isValid : bool
    }

    FidelityCard "1" --> "1" ClientSupplier

    class WorkflowType {
        -name : String
        -isBuy : bool
        -isSupplier : bool
        -isInternal : bool
    }

    class Status {
        -name : String
    }

    class Workflow {
        -id : String
    }

    Workflow "*" --> "1" Status
    Workflow "*" --> "1" WorkflowType

    class DocumentType {
        -name: String
    }

    class Document {
        -id : int
        -date : Date
        -plannedSendDate : Date
        -plannedReceptionDate : Date
        -effectiveSendDate : Date
        -effectiveReceptionDate : Date
        -paymentDelay : int
        -commentary : String
        -isChecked : bool
    }

    Document "*" --> "1" Workflow
    Document "*" --> "1" ClientSupplier
    Document "*" --> "1" Address
    Document "*" --> "1" DocumentType

    class ProductCategory {
        -name : String
    }

    class Product {
        -id : int
        -name : String
        -price : float
        -VAT : int
        -fidelityPoint : int
    }

    Product "*" --> "1" ProductCategory

    class Discount {
        -requiredQuantity : int
        -discount : int
        -startDate : Date
        -endDate : Date
        -name : String
    }

    Discount "*" --> "*" Product

    class LocationProduct {
        -shelf : String
        -floor : String
    }

    class QuantityProduct {
        -nbProduct : int
    }

    QuantityProduct "*" --> "1" Product
    QuantityProduct "*" --> "1" LocationProduct

    class Recipe {
        -name : String
        -explanation : String
    }

    class RecipeComposition {
        -quantity : int
    }

    RecipeComposition "*" --> "1" Recipe
    RecipeComposition "*" --> "1" Product

    class Detail {
        -id : int
        -quantity : float
        -price : float
    }

    Detail "*" --> "1" Document
    Detail "*" --> "1" Product

    class Batch {
        -id : int
        -expirationDate : Date
        -originCountry : String
    }

    Batch "*" --> "1" Product
    Batch "*" --> "1" Detail
}

' MODEL
' DocumentController ..> Document
' ClientSupplierController ..> ClientSupplier
' ProductSearchController ..> Product
' RecipeSearchController ..> Recipe

' DocumentManager ..> Document
' ClientSupplierManager ..> ClientSupplier
' ProductManager ..> Product
' RecipeSearchManager ..> Recipe

' DocumentDBAccess ..> Document
' ClientSupplierDBAccess ..> ClientSupplier
' ProductDBAccess ..> Product
' RecipeDBAccess ..> Recipe

view ..> model
controller ..> model
business ..> model
data ..> model


@enduml